<?xml version="1.0" encoding="UTF-8" standalone="no"?>
<!-- Created with Inkscape (http://www.inkscape.org/) -->

<svg
   xmlns:dc="http://purl.org/dc/elements/1.1/"
   xmlns:cc="http://creativecommons.org/ns#"
   xmlns:rdf="http://www.w3.org/1999/02/22-rdf-syntax-ns#"
   xmlns:svg="http://www.w3.org/2000/svg"
   xmlns="http://www.w3.org/2000/svg"
   version="1.1"
   width="618.0531"
   height="168"
   id="svg2">
  <defs
     id="defs4" />
  <metadata
     id="metadata7">
    <rdf:RDF>
      <cc:Work
         rdf:about="">
        <dc:format>image/svg+xml</dc:format>
        <dc:type
           rdf:resource="http://purl.org/dc/dcmitype/StillImage" />
        <dc:title></dc:title>
      </cc:Work>
    </rdf:RDF>
  </metadata>
  <g
     transform="translate(-63.020679,-442.18109)"
     id="layer1">
    <g
       id="text2985"
       style="font-size:200px;font-style:normal;font-variant:normal;font-weight:normal;font-stretch:normal;text-align:start;line-height:125%;letter-spacing:0px;word-spacing:0px;writing-mode:lr-tb;text-anchor:start;fill:#ff76c6;fill-opacity:1;stroke:none;font-family:Changa One;-inkscape-font-specification:Changa One">
      <path
         d="M 63.020679,574.98109 68.620679,541.98109 C 80.887323,545.04779 91.887312,546.58112 101.62068,546.58109 111.48729,546.58112 119.42062,546.18112 125.42068,545.38109 L 125.42068,535.38109 107.42068,533.78109 C 91.15398,532.31447 79.953991,528.44781 73.820679,522.18109 67.82067,515.78115 64.820673,506.38116 64.820679,493.98109 64.820673,476.91452 68.487336,465.1812 75.820679,458.78109 83.287321,452.38122 95.887308,449.18122 113.62068,449.18109 131.35394,449.18122 147.35392,450.84788 161.62068,454.18109 L 156.62068,486.18109 C 144.22059,484.18118 134.28727,483.18119 126.82068,483.18109 119.35395,483.18119 113.02062,483.51452 107.82068,484.18109 L 107.82068,493.98109 122.22068,495.38109 C 139.68726,497.1145 151.75392,501.3145 158.42068,507.98109 165.08724,514.51449 168.42057,523.64781 168.42068,535.38109 168.42057,543.78112 167.28724,550.91445 165.02068,556.78109 162.75391,562.51444 160.02058,566.91443 156.82068,569.98109 153.75392,572.91443 149.35392,575.18109 143.62068,576.78109 137.88727,578.38109 132.8206,579.31442 128.42068,579.58109 124.15395,579.98109 118.42062,580.18109 111.22068,580.18109 93.88731,580.18109 77.82066,578.44776 63.020679,574.98109"
         id="path3809"
         style="fill:#ff76c6;fill-opacity:1" />
      <path
         d="M 191.65505,567.18109 C 183.38838,558.38111 179.25505,545.04779 179.25505,527.18109 179.25505,509.31449 183.38838,496.04784 191.65505,487.38109 200.05503,478.58119 213.58835,474.18119 232.25505,474.18109 250.92164,474.18119 264.3883,478.58119 272.65505,487.38109 281.05495,496.04784 285.25494,509.31449 285.25505,527.18109 285.25494,545.04779 281.05495,558.38111 272.65505,567.18109 264.3883,575.84776 250.92164,580.18109 232.25505,580.18109 213.58835,580.18109 200.05503,575.84776 191.65505,567.18109 M 222.25505,511.78109 222.25505,550.98109 228.45505,550.98109 C 233.25499,550.98112 236.72166,550.51445 238.85505,549.58109 241.12165,548.51445 242.25499,546.18112 242.25505,542.58109 L 242.25505,503.38109 236.05505,503.38109 C 231.255,503.38117 227.72167,503.9145 225.45505,504.98109 223.32167,505.9145 222.25501,508.18116 222.25505,511.78109"
         id="path3811"
         style="fill:#ff76c6;fill-opacity:1" />
      <path
         d="M 313.23318,566.78109 290.83318,477.18109 330.83318,477.18109 341.83318,542.18109 343.83318,542.18109 354.83318,477.18109 394.83318,477.18109 369.83318,577.18109 C 366.09977,590.24774 361.43311,598.98107 355.83318,603.38109 350.23312,607.91439 342.16646,610.18106 331.63318,610.18109 L 292.83318,610.18109 292.83318,584.18109 311.63318,580.58109 C 321.23315,578.44776 327.49981,576.04776 330.43318,573.38109 332.03314,571.91443 333.36647,570.11443 334.43318,567.98109 L 334.23318,566.78109 313.23318,566.78109"
         id="path3813"
         style="fill:#ff76c6;fill-opacity:1" />
      <path
         d="M 470.73943,546.98109 444.73943,546.98109 444.73943,577.18109 404.73943,577.18109 404.73943,452.18109 467.73943,452.18109 C 496.40599,452.18122 510.73931,467.5812 510.73943,498.38109 510.73931,515.31449 507.00598,527.84781 499.53943,535.98109 496.73933,539.0478 492.87266,541.64779 487.93943,543.78109 483.00601,545.91446 477.27268,546.98112 470.73943,546.98109 M 444.73943,484.18109 444.73943,514.98109 453.93943,514.98109 C 458.73937,514.98115 462.20603,514.51449 464.33943,513.58109 466.60602,512.51449 467.73936,510.18116 467.73943,506.58109 L 467.73943,492.58109 C 467.73936,488.98118 466.60602,486.71452 464.33943,485.78109 462.20603,484.71452 458.73937,484.18118 453.93943,484.18109 L 444.73943,484.18109"
         id="path3815"
         style="fill:#ff76c6;fill-opacity:1" />
      <path
         d="M 522.70818,577.18109 522.70818,482.18109 562.70818,477.18109 562.70818,577.18109 522.70818,577.18109 M 524.90818,470.78109 C 521.97484,468.51453 520.50817,464.3812 520.50818,458.38109 520.50817,452.38122 521.97484,448.18122 524.90818,445.78109 527.97483,443.38123 533.90816,442.18123 542.70818,442.18109 551.64147,442.18123 557.5748,443.38123 560.50818,445.78109 563.5748,448.18122 565.10813,452.38122 565.10818,458.38109 565.10813,464.3812 563.5748,468.51453 560.50818,470.78109 557.5748,473.04786 551.64147,474.18119 542.70818,474.18109 533.90816,474.18119 527.97483,473.04786 524.90818,470.78109"
         id="path3817"
         style="fill:#ff76c6;fill-opacity:1" />
      <path
         d="M 577.0738,604.18109 582.2738,574.38109 C 593.60712,578.24776 606.87377,580.18109 622.0738,580.18109 626.60708,580.18109 629.80708,580.04776 631.6738,579.78109 L 631.6738,572.78109 C 619.80709,572.7811 612.0071,572.31443 608.2738,571.38109 604.67377,570.31443 602.27377,569.31443 601.0738,568.38109 600.00711,567.31443 599.34044,566.44777 599.0738,565.78109 598.94044,565.11444 598.87378,564.1811 598.8738,562.98109 L 604.8738,545.78109 C 595.27378,544.04779 587.94046,540.44779 582.8738,534.98109 577.94047,529.51447 575.4738,520.98115 575.4738,509.38109 575.4738,497.64784 579.40713,488.84785 587.2738,482.98109 595.14045,477.11452 607.94044,474.18119 625.6738,474.18109 632.07374,474.18119 637.74041,474.58119 642.6738,475.38109 L 660.0738,461.98109 681.0738,482.18109 669.6738,495.58109 C 671.40704,500.24783 672.2737,506.24783 672.2738,513.58109 672.2737,524.11448 669.60704,531.98114 664.2738,537.18109 659.07372,542.24779 649.74039,545.31446 636.2738,546.38109 L 635.4738,551.18109 C 649.87373,551.98112 660.00705,554.18111 665.8738,557.78109 671.87371,561.24777 674.8737,567.71443 674.8738,577.18109 674.8737,593.31441 667.07371,603.3144 651.4738,607.18109 643.7404,609.18106 633.27374,610.18106 620.0738,610.18109 607.0071,610.18106 592.67378,608.18106 577.0738,604.18109 M 613.0738,509.18109 613.0738,522.18109 619.2738,522.18109 C 624.07375,522.18115 627.54042,521.71448 629.6738,520.78109 631.94041,519.71448 633.07374,517.38115 633.0738,513.78109 L 633.0738,500.78109 626.8738,500.78109 C 622.07375,500.78117 618.54043,501.3145 616.2738,502.38109 614.14043,503.3145 613.07376,505.58116 613.0738,509.18109"
         id="path3819"
         style="fill:#ff76c6;fill-opacity:1" />
    </g>
  </g>
</svg>
